# AST/ASF file generated using VICON BodyLanguage
# -----------------------------------------------
:version 1.10
:name VICON
:units
  mass 1.0
  length 0.45
  angle deg
:documentation
   .ast/.asf automatically generated from VICON data using
   VICON BodyBuilder and BodyLanguage model FoxedUp or BRILLIANT.MOD
:root
   order TX TY TZ RX RY RZ
   axis XYZ
   position 0 0 0  
   orientation 0 0 0 
:bonedata
  begin
     id 1 
     name lhipjoint
     direction 0.567725 -0.736092 0.368589 
     length 2.42353 
     axis 0 0 0  XYZ
  end
  begin
     id 2 
     name lfemur
     direction 0.34202 -0.939693 0  
     length 7.24894  
     axis 0 0 20  XYZ
    dof rx ry rz
    limits (-160.0 20.0)
           (-70.0 70.0)
           (-60.0 70.0)
  end
  begin
     id 3 
     name ltibia
     direction 0.34202 -0.939693 0   
     length 7.6997   
     axis 0 0 20   XYZ
    dof rx
    limits (-10.0 170.0)
  end
  begin
     id 4 
     name lfoot
     direction 0.100767 -0.276854 0.955614   
     length 2.37556   
     axis -90 7.62852e-016 20   XYZ
    dof rx rz
    limits (-45.0 90.0)
           (-70.0 20.0)
  end
  begin
     id 5 
     name ltoes
     direction 1.53592e-011 -4.21894e-011 1   
     length 1.18363   
     axis -90 7.62852e-016 20   XYZ
    dof rx
    limits (-90.0 20.0)
  end
  begin
     id 6 
     name rhipjoint
     direction -0.556459 -0.742938 0.372017   
     length 2.4012  
     axis 0 0 0  XYZ 
  end
  begin
     id 7 
     name rfemur
     direction -0.34202 -0.939693 0   
     length 7.5119   
     axis 0 0 -20   XYZ
    dof rx ry rz
    limits (-160.0 20.0)
           (-70.0 70.0)
           (-70.0 60.0)
  end
  begin
     id 8 
     name rtibia
     direction -0.34202 -0.939693 0   
     length 7.50155   
     axis 0 0 -20   XYZ
    dof rx
    limits (-10.0 170.0)
 end
 begin
     id 9 
     name rfoot
     direction -0.118427 -0.325376 0.938139   
     length 2.32487  
     axis -90 -7.62852e-016 -20   XYZ
    dof rx rz
    limits (-45.0 90.0)
           (-20.0 70.0)
  end
  begin
     id 10 
     name rtoes
     direction -1.53525e-011 -4.21868e-011 1   
     length 1.15233   
     axis -90 -7.62852e-016 -20   XYZ
    dof rx
    limits (-90.0 20.0)
  end
  begin
     id 11 
     name lowerback
     direction 0.0287568 0.999577 -0.00434502   
     length 2.15243   
     axis 0 0 0   XYZ
    dof rx ry rz
    limits (-20.0 45.0)
           (-30.0 30.0)
           (-30.0 30.0)
  end
  begin
     id 12 
     name upperback
     direction 0.0294009 0.99956 0.00404628   
     length 2.15427   
     axis 0 0 0   XYZ
    dof rx ry rz
    limits (-20.0 45.0)
           (-30.0 30.0)
           (-30.0 30.0)
  end
  begin
     id 13 
     name thorax
     direction 0.0151014 0.999868 0.0059419   
     length 2.14898   
     axis 0 0 0   XYZ
    dof rx ry rz
    limits (-20.0 45.0)
           (-30.0 30.0)
           (-30.0 30.0)
  end
  begin
     id 14 
     name lowerneck
     direction -0.0249197 0.989906 0.139515   
     length 1.6861   
     axis 0 0 0   XYZ
    dof rx ry rz
    limits (-20.0 45.0)
           (-30.0 30.0)
           (-30.0 30.0)
  end
  begin
     id 15 
     name upperneck
     direction 0.0438463 0.988795 -0.142693   
     length 1.71276   
     axis 0 0 0   XYZ
    dof rx ry rz
    limits (-20.0 45.0)
           (-30.0 30.0)
           (-30.0 30.0)
  end
  begin
     id 16
     name head
     direction 0.0148499 0.997845 -0.0639186  
     length 1.7209  
     axis 0 0 0   XYZ
    dof rx ry rz
    limits (-20.0 45.0)
           (-30.0 30.0)
           (-30.0 30.0)
  end
  begin
     id 17 
     name lclavicle
     direction 0.940298 0.323464 -0.105876  
     length 3.9048  
     axis 0 0 0   XYZ
    dof ry rz
    limits (-20.0 10.0)
           (0.0 20.0)
  end
  begin
     id 18 
     name lhumerus
     direction 1 -4.48954e-011 -4.9675e-028   
     length 4.6851   
     axis 180 -30 -90   XYZ
    dof rx ry rz
    limits (-60.0 90.0)
           (-90.0 90.0)
           (-90.0 90.0)
  end
  begin
     id 19
     name lradius
     direction 1 -4.48992e-011 -1.03359e-026   
     length 3.39626   
     axis 180 -30 -90   XYZ
    dof rx
    limits (-10.0 170.0)
  end
  begin
     id 20
     name lwrist
     direction 1 -4.48906e-011 -1.67336e-026   
     length 1.69813   
     axis 9.90442e-015 90 90   XYZ
    dof ry
    limits (-180.0 0.0)
 end
  begin
     id 21 
     name lhand
     direction 1 -4.49006e-011 -3.34673e-026   
     length 0.486078   
     axis 2.1355e-014 90 90   XYZ
    dof rx rz
    limits (-90.0 90.0)
           (-45.0 45.0)
  end
  begin
     id 22 
     name lfingers
     direction 1 -4.48992e-011 -6.69345e-026   
     length 0.391889   
     axis 4.27099e-014 90 90   XYZ
    dof rx
    limits (0.0 90.0)
  end
  begin
     id 23
     name lthumb
     direction 0.707107 -6.34926e-011 0.707107   
     length 0.562676   
     axis -90 45 2.85299e-015   XYZ
    dof rx rz
    limits (-45.0 45.0)
           (-45.0 45.0)
  end
  begin
     id 24 
     name rclavicle
     direction -0.882459 0.414895 -0.221648   
     length 3.44646  
     axis 0 0 0   XYZ 
    dof ry rz
    limits (-10.0 20.0)
           (-20.0 0.0)
  end
  begin
     id 25 
     name rhumerus
     direction -1 -4.48962e-011 -2.37984e-027  
     length 5.55576   
     axis 180 30 90   XYZ
    dof rx ry rz
    limits (-90.0 60.0)
           (-90.0 90.0)
           (-90.0 90.0)
  end
  begin
     id 26 
     name rradius
     direction -1 -4.48982e-011 -6.86791e-027   
     length 3.32774   
     axis 180 30 90   XYZ
    dof rx
    limits (-10.0 170.0)
  end
  begin
     id 27 
     name rwrist
     direction -1 -4.48961e-011 -1.67336e-026   
     length 1.66387   
     axis 9.90442e-015 -90 -90   XYZ
    dof ry
    limits (-180.0 0.0)
  end
  begin
     id 28
     name rhand
     direction -1 -4.4897e-011 -3.34673e-026   
     length 0.507628   
     axis 2.1355e-014 -90 -90   XYZ
    dof rx rz
    limits (-90.0 90.0)
           (-45.0 45.0)
  end
  begin
     id 29
     name rfingers
     direction -1 -4.48854e-011 -6.69345e-026   
     length 0.409263   
     axis 4.27099e-014 -90 -90   XYZ
    dof rx
    limits (0.0 90.0)
  end
  begin
     id 30
     name rthumb
     direction -0.707107 -6.34913e-011 0.707107   
     length 0.587622   
     axis -90 -45 -2.85299e-015   XYZ
    dof rx rz
    limits (-45.0 45.0)
           (-45.0 45.0)
  end
:hierarchy
  begin
    root lhipjoint rhipjoint lowerback
    lhipjoint lfemur
    lfemur ltibia
    ltibia lfoot
    lfoot ltoes
    rhipjoint rfemur
    rfemur rtibia
    rtibia rfoot
    rfoot rtoes
    lowerback upperback
    upperback thorax
    thorax lowerneck lclavicle rclavicle
    lowerneck upperneck
    upperneck head
    lclavicle lhumerus
    lhumerus lradius
    lradius lwrist
    lwrist lhand lthumb
    lhand lfingers
    rclavicle rhumerus
    rhumerus rradius
    rradius rwrist
    rwrist rhand rthumb
    rhand rfingers
  end

#!OML:ASF E:\motion texture\Top Level 1\Subject 1\Session 1\male.ASF
:FULLY-SPECIFIED
:DEGREES
80
root 23.1663 17.862 5.04727 -250.836 -80.8266 257.645
lowerback 0.541684 0.523274 6.84391
upperback -1.13989 0.7151 4.27033
thorax -1.44831 0.251512 0.556257
lowerneck -11.3345 -3.51023 -4.91468
upperneck 10.4132 -4.26321 2.61692
head 5.15051 -2.11233 1.27894
rclavicle -1.20513e-014 -3.53837e-014
rhumerus -6.91491 15.9233 -69.4173
rradius 78.8432
rwrist -7.97482
rhand -18.4686 -33.1769
rfingers 7.12502
rthumb 7.8181 -63.0124
lclavicle -1.20513e-014 -3.53837e-014
lhumerus -10.9624 -9.67536 90.5686
lradius 71.7567
lwrist -0.498671
lhand -23.2385 24.2158
lfingers 7.12502
lthumb 3.21277 54.1713
rfemur -4.57315 4.42674 32.7023
rtibia 16.5011
rfoot -12.8299 -7.25527
rtoes 10.4647
lfemur -31.8443 1.87993 -4.40585
ltibia 28.8511
lfoot -7.21179 7.89635
ltoes -15.9924
81
root 23.0403 17.8509 5.04909 -250.616 -80.7685 257.516
lowerback 0.374637 0.632043 6.93361
upperback -1.20235 0.848533 4.20417
thorax -1.4114 0.316979 0.437671
lowerneck -11.365 -3.56614 -5.01973
upperneck 10.483 -4.31378 2.55902
head 5.1804 -2.14529 1.27266
rclavicle -4.77083e-015 1.90833e-014
rhumerus -6.22101 17.0318 -69.313
rradius 76.902
rwrist -9.04001
rhand -16.5959 -34.5699
rfingers 7.12502
rthumb 9.62522 -64.33
lclavicle -4.77083e-015 1.90833e-014
lhumerus -10.7577 -9.79825 90.5537
lradius 69.4363
lwrist 0.122458
lhand -22.1127 24.8736
lfingers 7.12502
lthumb 4.29995 54.81
rfemur -4.21008 4.33468 32.7941
rtibia 16.5011
rfoot -13.0685 -7.44948
rtoes 9.95717
lfemur -31.5778 1.15525 -4.08369
ltibia 26.1293
lfoot -7.13033 8.19483
ltoes -15.9176
82
root 22.9117 17.8391 5.05137 -250.405 -80.7114 257.397
lowerback 0.191632 0.74152 7.0167
upperback -1.25923 0.980326 4.14277
thorax -1.35928 0.382093 0.328501
lowerneck -11.4065 -3.61589 -5.12423
upperneck 10.5556 -4.35394 2.48982
head 5.21239 -2.17392 1.26336
rclavicle -4.89507e-015 5.84427e-014
rhumerus -5.62912 18.099 -69.2416
rradius 75.1441
rwrist -10.0699
rhand -14.7499 -35.9531
rfingers 7.12502
rthumb 11.406 -65.6228
lclavicle -4.89507e-015 5.84427e-014
lhumerus -10.6482 -9.94344 90.5601
lradius 67.2924
lwrist 0.940316
lhand -20.7442 25.8378
lfingers 7.12502
lthumb 5.62137 55.7433
rfemur -3.8352 4.24749 32.888
rtibia 16.4929
rfoot -13.3064 -7.67731
rtoes 9.42797
lfemur -31.2837 0.3851 -3.74108
ltibia 23.4509
lfoot -7.06367 8.47211
ltoes -15.8767
83
root 22.7805 17.8267 5.05415 -250.198 -80.6585 257.278
lowerback 0.00464604 0.853524 7.09087
upperback -1.31173 1.11441 4.08226
thorax -1.29983 0.448717 0.225947
lowerneck -11.4706 -3.66172 -5.22338
upperneck 10.6348 -4.387 2.41078
head 5.2497 -2.19947 1.25024
rclavicle 3.18055e-015 3.45885e-014
rhumerus -5.17567 19.1292 -69.2136
rradius 73.6264
rwrist -11.1021
rhand -13.1638 -37.2935
rfingers 7.12502
rthumb 12.9353 -66.8725
lclavicle 3.18055e-015 3.45885e-014
lhumerus -10.6587 -10.1402 90.5857
lradius 65.3939
lwrist 1.99112
lhand -19.2836 27.1053
lfingers 7.12502
lthumb 7.03137 56.9685
rfemur -3.45003 4.17877 32.9778
rtibia 16.4893
rfoot -13.5498 -7.92618
rtoes 8.87614
lfemur -30.9744 -0.396639 -3.39429
ltibia 20.8645
lfoot -6.98851 8.72102
ltoes -15.8569
84
root 22.647 17.8136 5.05759 -250.014 -80.6153 257.185
lowerback -0.18067 0.963371 7.15446
upperback -1.3623 1.24543 4.02111
thorax -1.23907 0.514046 0.129321
lowerneck -11.5605 -3.7024 -5.31507
upperneck 10.7113 -4.41055 2.31749
head 5.2896 -2.22089 1.23179
rclavicle -2.98177e-016 2.34566e-014
rhumerus -4.88603 20.1393 -69.2383
rradius 72.4015
rwrist -12.1488
rhand -12.0291 -38.5626
rfingers 7.12502
rthumb 14.029 -68.0692
lclavicle -2.98177e-016 2.34566e-014
lhumerus -10.8194 -10.4044 90.628
lradius 63.803
lwrist 3.22659
lhand -17.9678 28.6161
lfingers 7.12502
lthumb 8.3014 58.4329
rfemur -3.06926 4.12811 33.054
rtibia 16.5031
rfoot -13.7924 -8.17658
rtoes 8.25272
lfemur -30.6809 -1.15336 -3.06483
ltibia 18.4369
lfoot -6.89955 8.94323
ltoes -15.8508
85
root 22.5115 17.7997 5.06158 -249.801 -80.5837 257.067
lowerback -0.373687 1.07289 7.20288
upperback -1.39779 1.37419 3.95401
thorax -1.15813 0.579374 0.0358925
lowerneck -11.6925 -3.73992 -5.39584
upperneck 10.7702 -4.42805 2.22297
head 5.33058 -2.23854 1.21106
rclavicle -1.00635e-014 3.22031e-014
rhumerus -4.76643 21.1221 -69.3291
rradius 71.511
rwrist -13.1734
rhand -11.4578 -39.7055
rfingers 7.12502
rthumb 14.5795 -69.1731
lclavicle -1.00635e-014 3.22031e-014
lhumerus -11.1281 -10.7589 90.6796
lradius 62.5591
lwrist 4.49676
lhand -17.0564 30.2418
lfingers 7.12502
lthumb 9.1809 60.0219
rfemur -2.69902 4.10503 33.1106
rtibia 16.5477
rfoot -14.0381 -8.41054
rtoes 7.57397
lfemur -30.418 -1.82773 -2.77727
ltibia 16.2306
lfoot -6.80971 9.11073
ltoes -15.8708
86
root 22.3744 17.785 5.06649 -249.603 -80.5622 256.972
lowerback -0.566647 1.17713 7.24191
upperback -1.42584 1.49551 3.88168
thorax -1.06952 0.641569 -0.0569169
lowerneck -11.8474 -3.77465 -5.46342
upperneck 10.7957 -4.44092 2.12448
head 5.36437 -2.25323 1.18716
rclavicle -3.13086e-015 1.55052e-014
rhumerus -4.84308 22.0777 -69.5003
rradius 71.0071
rwrist -14.12
rhand -11.429 -40.6748
rfingers 7.12502
rthumb 14.6072 -70.1404
lclavicle -3.13086e-015 1.55052e-014
lhumerus -11.6134 -11.2013 90.7494
lradius 61.6882
lwrist 5.55471
lhand -16.7239 31.8132
lfingers 7.12502
lthumb 9.50171 61.579
rfemur -2.35543 4.10548 33.1484
rtibia 16.6417
rfoot -14.2936 -8.61878
rtoes 6.83501
lfemur -30.218 -2.38683 -2.54632
ltibia 14.3228
lfoot -6.76199 9.2021
ltoes -15.9424
87
root 22.2359 17.7698 5.07219 -249.428 -80.5497 256.908
lowerback -0.746903 1.27528 7.27648
upperback -1.4451 1.60981 3.79856
thorax -0.978738 0.700745 -0.157832
lowerneck -12.0386 -3.80846 -5.51865
upperneck 10.782 -4.4528 2.03862
head 5.39185 -2.26538 1.16493
rclavicle 1.2424e-015 4.01545e-014
rhumerus -5.12512 22.9657 -69.7749
rradius 70.9194
rwrist -14.8931
rhand -11.8491 -41.4378
rfingers 7.12502
rthumb 14.2024 -70.9323
lclavicle 1.2424e-015 4.01545e-014
lhumerus -12.2686 -11.7132 90.8388
lradius 61.1946
lwrist 6.1178
lhand -16.9617 33.1709
lfingers 7.12502
lthumb 9.27229 62.947
rfemur -2.04098 4.11843 33.1662
rtibia 16.7855
rfoot -14.5522 -8.78628
rtoes 6.03473
lfemur -30.0965 -2.8035 -2.38555
ltibia 12.7787
lfoot -6.77645 9.19546
ltoes -16.0825
88
root 22.096 17.7543 5.07885 -249.321 -80.5433 256.923
lowerback -0.910163 1.36766 7.31765
upperback -1.46799 1.71884 3.70106
thorax -0.90054 0.756979 -0.276998
lowerneck -12.2235 -3.84191 -5.56234
upperneck 10.7124 -4.46798 1.97296
head 5.40102 -2.27675 1.14737
rclavicle -3.40419e-015 -5.28767e-014
rhumerus -5.62487 23.7371 -70.1819
rradius 71.2392
rwrist -15.4004
rhand -12.5626 -41.9653
rfingers 7.12502
rthumb 13.5148 -71.5068
lclavicle -3.40419e-015 -5.28767e-014
lhumerus -13.1111 -12.2581 90.9598
lradius 61.0749
lwrist 5.97201
lhand -17.5924 34.2049
lfingers 7.12502
lthumb 8.66372 64.0072
rfemur -1.76305 4.13513 33.1683
rtibia 16.9855
rfoot -14.8154 -8.9127
rtoes 5.1734
lfemur -30.0731 -3.06395 -2.30211
ltibia 11.6536
lfoot -6.85476 9.0651
ltoes -16.286
89
root 21.9547 17.7385 5.08661 -249.333 -80.5412 257.069
lowerback -1.04167 1.45353 7.36725
upperback -1.49852 1.82324 3.59448
thorax -0.84737 0.810072 -0.410509
lowerneck -12.4185 -3.87879 -5.60736
upperneck 10.5992 -4.48871 1.9278
head 5.39884 -2.28891 1.13609
rclavicle -1.06598e-014 2.34566e-014
rhumerus -6.33705 24.3475 -70.716
rradius 71.9623
rwrist -15.6005
rhand -13.377 -42.2248
rfingers 7.12502
rthumb 12.7298 -71.8168
lclavicle -1.06598e-014 2.34566e-014
lhumerus -14.1164 -12.7725 91.1264
lradius 61.3076
lwrist 5.05925
lhand -18.3387 34.8458
lfingers 7.12502
lthumb 7.94342 64.6766
rfemur -1.52533 4.15113 33.1604
rtibia 17.249
rfoot -15.0816 -9.00597
rtoes 4.25618
lfemur -30.1538 -3.18063 -2.29838
ltibia 10.9713
lfoot -6.95808 8.82004
ltoes -16.559
90
root 21.8118 17.7227 5.09523 -249.507 -80.5381 257.38
lowerback -1.14748 1.53554 7.4287
upperback -1.53018 1.9253 3.48228
thorax -0.808889 0.861478 -0.556626
lowerneck -12.6082 -3.92212 -5.6594
upperneck 10.431 -4.51952 1.9073
head 5.37954 -2.30402 1.13326
rclavicle 3.49116e-015 -4.67144e-014
rhumerus -7.2258 24.7467 -71.365
rradius 73.0493
rwrist -15.507
rhand -14.1162 -42.203
rfingers 7.12502
rthumb 12.017 -71.838
lclavicle 3.49116e-015 -4.67144e-014
lhumerus -15.242 -13.2139 91.3375
lradius 61.8633
lwrist 3.52969
lhand -18.9413 35.066
lfingers 7.12502
lthumb 7.36178 64.9179
rfemur -1.31808 4.16339 33.1543
rtibia 17.5706
rfoot -15.3422 -9.08093
rtoes 3.26651
lfemur -30.3274 -3.17988 -2.36289
ltibia 10.7298
lfoot -7.05321 8.49946
ltoes -16.8087
91
root 21.6672 17.7071 5.10457 -249.832 -80.5335 257.839
lowerback -1.23172 1.61984 7.49102
upperback -1.56335 2.03271 3.37094
thorax -0.783142 0.91514 -0.702548
lowerneck -12.7723 -3.97528 -5.73316
upperneck 10.2128 -4.56406 1.91314
head 5.34193 -2.32453 1.14173
rclavicle -2.23633e-015 -4.11484e-014
rhumerus -8.27031 24.9095 -72.1036
rradius 74.4682
rwrist -15.1933
rhand -14.684 -41.91
rfingers 7.12502
rthumb 11.4695 -71.5763
lclavicle -2.23633e-015 -4.11484e-014
lhumerus -16.4492 -13.5718 91.601
lradius 62.7
lwrist 1.68938
lhand -19.2834 34.8726
lfingers 7.12502
lthumb 7.03157 64.7358
rfemur -1.13496 4.17477 33.1526
rtibia 17.9536
rfoot -15.5979 -9.14852
rtoes 2.2177
lfemur -30.5695 -3.09229 -2.49034
ltibia 10.8887
lfoot -7.0942 8.15548
ltoes -16.953
92
root 21.5204 17.6915 5.1143 -250.383 -80.5273 258.516
lowerback -1.29069 1.70178 7.55313
upperback -1.5968 2.13946 3.26699
thorax -0.771597 0.967995 -0.841226
lowerneck -12.9225 -4.03609 -5.83596
upperneck 9.96274 -4.61625 1.9351
head 5.29338 -2.34861 1.15967
rclavicle -7.93896e-015 2.66371e-014
rhumerus -9.44542 24.8531 -72.8998
rradius 76.1917
rwrist -14.7791
rhand -15.0459 -41.3513
rfingers 7.12502
rthumb 11.1205 -71.0367
lclavicle -7.93896e-015 2.66371e-014
lhumerus -17.6966 -13.8584 91.9117
lradius 63.7784
lwrist -0.111852
lhand -19.3465 34.284
lfingers 7.12502
lthumb 6.97064 64.1492
rfemur -0.968599 4.1681 33.1622
rtibia 18.3969
rfoot -15.8433 -9.22091
rtoes 1.09932
lfemur -30.8577 -2.96217 -2.66767
ltibia 11.3938
lfoot -7.05835 7.8391
ltoes -17.0174
93
root 21.3712 17.6761 5.12414 -251.1 -80.5162 259.342
lowerback -1.33228 1.78845 7.60296
upperback -1.62259 2.25372 3.17597
thorax -0.761681 1.02477 -0.959935
lowerneck -13.0706 -4.10641 -5.96741
upperneck 9.70118 -4.67674 1.9624
head 5.24204 -2.37738 1.18318
rclavicle 3.95085e-015 -1.47101e-014
rhumerus -10.7118 24.5992 -73.7179
rradius 78.1854
rwrist -14.397
rhand -15.2495 -40.5838
rfingers 7.12502
rthumb 10.9241 -70.2796
lclavicle 3.95085e-015 -1.47101e-014
lhumerus -18.9358 -14.1242 92.2695
lradius 65.0514
lwrist -1.60568
lhand -19.2019 33.376
lfingers 7.12502
lthumb 7.11026 63.2365
rfemur -0.810126 4.14263 33.1845
rtibia 18.9025
rfoot -16.0771 -9.29832
rtoes -0.0557339
lfemur -31.1504 -2.81671 -2.88145
ltibia 12.1626
lfoot -6.95023 7.57923
ltoes -17.0203
94
root 21.2196 17.6608 5.13391 -252.007 -80.4993 260.335
lowerback -1.36493 1.87723 7.63508
upperback -1.63746 2.37082 3.10398
thorax -0.746167 1.08349 -1.04918
lowerneck -13.2088 -4.18055 -6.11832
upperneck 9.44126 -4.73731 1.97125
head 5.1897 -2.40829 1.20411
rclavicle 2.60159e-014 3.6477e-014
rhumerus -12.0427 24.2004 -74.5332
rradius 80.4233
rwrist -14.175
rhand -15.3783 -39.6819
rfingers 7.12502
rthumb 10.7998 -69.3842
lclavicle 2.60159e-014 3.6477e-014
lhumerus -20.146 -14.4182 92.6739
lradius 66.4837
lwrist -2.67165
lhand -18.9445 32.2601
lfingers 7.12502
lthumb 7.35873 62.1121
rfemur -0.6535 4.09715 33.2252
rtibia 19.4711
rfoot -16.2978 -9.39279
rtoes -1.23254
lfemur -31.4212 -2.68906 -3.11574
ltibia 13.119
lfoot -6.77364 7.35318
ltoes -16.9758
